# xmcd
#
# Track frame offsets:
#	150
#	27793
#	41224
#	65358
#	83260
#	100298
#	110690
#	129716
#	147044
#	175229
#	198965
#	218687
#	241210
# Disc length: 3817 seconds
# Revision: 1
# Processed by: cddbd v1.5.2PL0 Copyright (c) Steve Scherf et al.
#
# Submitted via: libkcddb 0.31
#
DISCID=ad0ee70d
DTITLE=chambers way band - Chambers Way Band
DYEAR=1985
DGENRE=
TTITLE0=BREAKDOWN
TTITLE1=CONGRATULATIONS
TTITLE2=I'M AN OLD PIPE LINER
TTITLE3=LAST NIGHT
TTITLE4=LAST NIGHT TAKE 2
TTITLE5=PINS AND NEEDLES
TTITLE6=POOR POOR PITIFUL ME
TTITLE7=SHE'S CRAZY FOR LEAVING
TTITLE8=STATESBOURGH BLUES
TTITLE9=SWEET HOME ALABAMA
TTITLE10=THEY CALL ME THE BREEZE
TTITLE11=TILL I CAN GAIN CONTROL AGAIN
TTITLE12=FREE BIRD
EXTD=
EXTT0=
EXTT1=
EXTT2=
EXTT3=
EXTT4=
EXTT5=
EXTT6=
EXTT7=
EXTT8=
EXTT9=
EXTT10=
EXTT11=
EXTT12=
PLAYORDER=
